<svg width="24" height="24" viewBox="0 0 24 24" fill="none" xmlns="http://www.w3.org/2000/svg">
<g clip-path="url(#clip0)">
<path d="M12.5934 11.4067C12.4101 11.2235 12.1134 11.2235 11.9301 11.4067C11.7473 11.5896 11.7473 11.8863 11.9301 12.0696C12.1134 12.2524 12.4101 12.2524 12.5934 12.0696C12.7762 11.8863 12.7762 11.5896 12.5934 11.4067Z" fill="white"/>
<path d="M18.5589 5.44108C17.643 4.5252 16.1602 4.52515 15.2442 5.44108C14.3307 6.35463 14.3306 7.8415 15.2444 8.7558C16.1583 9.66911 17.6451 9.66948 18.5589 8.7557C19.4747 7.83986 19.4749 6.35707 18.5589 5.44108ZM17.896 8.09275C17.3479 8.64091 16.4557 8.64091 15.9073 8.09285C15.3591 7.54432 15.359 6.6521 15.9072 6.10399C16.4567 5.55448 17.3464 5.55438 17.896 6.10399C18.4455 6.65346 18.4456 7.54319 17.896 8.09275Z" fill="white"/>
<path d="M23.8632 0.137301C23.7712 0.0452858 23.6456 -0.00458915 23.515 0.000332718C23.409 0.00412959 20.8855 0.105567 17.8857 1.16583C15.482 2.01455 13.4784 3.22969 11.9306 4.7775C11.5838 5.12432 11.2463 5.4921 10.9234 5.87418C9.393 4.97334 8.16666 5.25581 7.3914 5.6707C5.60635 6.62601 4.50146 9.21988 4.50146 11.0752C4.50161 11.2647 4.61584 11.4357 4.79096 11.5082C4.84895 11.5323 4.90989 11.5439 4.97026 11.5439C5.09228 11.5439 5.21214 11.4963 5.30181 11.4066C6.2432 10.4653 7.40433 10.5241 7.78365 10.574L7.9478 10.7382C7.62474 11.5069 7.36449 12.2713 7.17362 13.0148C7.10471 13.2839 7.12796 13.5686 7.23038 13.829C6.77907 14.037 6.34365 14.3424 5.96452 14.7215C4.75792 15.9282 4.5129 18.8688 4.50306 18.9934C4.49228 19.1302 4.54187 19.2648 4.63886 19.3618C4.72712 19.45 4.84651 19.4991 4.97026 19.4991C4.98254 19.4991 4.99487 19.4986 5.0072 19.4976C5.13179 19.4878 8.07254 19.2428 9.27914 18.0362C9.65813 17.6572 9.96347 17.2218 10.1715 16.7706C10.4472 16.8791 10.731 16.8924 10.9861 16.827C11.7293 16.6362 12.4936 16.376 13.2625 16.0529L13.4266 16.2171C13.4765 16.5964 13.5353 17.7576 12.594 18.6989C12.46 18.8329 12.4199 19.0345 12.4924 19.2097C12.5649 19.3848 12.7358 19.499 12.9254 19.499C14.7808 19.499 17.3746 18.3941 18.3299 16.6091C18.7448 15.8339 19.0272 14.6076 18.1264 13.0772C18.5083 12.7544 18.8761 12.4169 19.2231 12.0699C20.7709 10.5221 21.986 8.51854 22.8347 6.11498C23.895 3.11508 23.9964 0.591519 24.0002 0.485582C24.0049 0.355504 23.9553 0.229364 23.8632 0.137301ZM5.54949 10.067C5.84068 8.65775 6.68644 7.1114 7.83394 6.49724C8.60077 6.0869 9.43894 6.12712 10.3301 6.61495C9.57089 7.61347 8.91085 8.68925 8.36068 9.82527C8.35369 9.82096 8.26932 9.71488 8.11257 9.67953C8.04811 9.66496 6.80785 9.39819 5.54949 10.067ZM8.61624 17.3733C7.97171 18.0178 6.45976 18.3577 5.50412 18.4965C5.64296 17.5408 5.98295 16.0289 6.62743 15.3844C6.98837 15.0235 7.40687 14.7499 7.82752 14.5957L9.40496 16.1732C9.25083 16.5938 8.97722 17.0123 8.61624 17.3733ZM10.7533 15.9189C10.6176 15.9536 10.4605 15.9026 10.3437 15.786C9.73725 15.1796 9.50002 14.9423 9.42558 14.8679C9.28908 14.7314 8.95435 14.3967 8.21499 13.6573C8.09808 13.5402 8.04708 13.3831 8.08172 13.2477C8.23186 12.6629 8.42822 12.063 8.667 11.4574L12.5433 15.3337C11.9376 15.5725 11.3377 15.7688 10.7533 15.9189ZM17.5034 16.1667C16.8893 17.3142 15.343 18.16 13.9338 18.4511C14.3831 17.6057 14.4822 16.5294 14.318 15.8767C14.2799 15.7251 14.181 15.6489 14.1755 15.64C15.3114 15.0898 16.3871 14.4297 17.3857 13.6705C17.8736 14.5618 17.9137 15.4001 17.5034 16.1667ZM18.5603 11.407C18.1379 11.8294 17.6831 12.2374 17.2084 12.6198C16.0674 13.5385 14.8115 14.3167 13.4716 14.9362L9.06446 10.5291C9.68396 9.18917 10.4622 7.9333 11.3808 6.79241C11.7635 6.31743 12.1715 5.86256 12.5937 5.4404C13.9824 4.05168 15.7746 2.94647 17.922 2.15091L21.8498 6.07865C21.0543 8.22604 19.9491 10.0183 18.5603 11.407ZM22.187 5.09001L18.9107 1.81364C20.6957 1.25921 22.2486 1.0516 23.0238 0.976972C22.9491 1.75224 22.7414 3.30515 22.187 5.09001Z" fill="white"/>
<path d="M11.2674 19.3618C11.0843 19.1788 10.7874 19.1789 10.6044 19.3619L9.27882 20.688C9.09582 20.8711 9.09587 21.1679 9.27892 21.3509C9.46206 21.5339 9.75887 21.5339 9.94187 21.3508L11.2675 20.0248C11.4505 19.8417 11.4504 19.5448 11.2674 19.3618Z" fill="white"/>
<path d="M4.63856 12.7328C4.45556 12.5497 4.1588 12.5497 3.97566 12.7327L2.64956 14.0583C2.46647 14.2413 2.46642 14.5381 2.64942 14.7212C2.83237 14.9042 3.12914 14.9044 3.31233 14.7213L4.63842 13.3957C4.82151 13.2127 4.82156 12.9159 4.63856 12.7328Z" fill="white"/>
<path d="M7.95259 20.0247C7.76963 19.8417 7.47278 19.8417 7.28968 20.0247L4.11438 23.1995C3.93128 23.3826 3.93128 23.6794 4.11433 23.8624C4.29728 24.0455 4.59414 24.0456 4.77723 23.8625L7.95254 20.6876C8.13563 20.5046 8.13563 20.2078 7.95259 20.0247Z" fill="white"/>
<path d="M4.20259 20.0247C4.01959 19.8417 3.72273 19.8417 3.53968 20.0247L0.364377 23.1995C0.181283 23.3826 0.181283 23.6794 0.36433 23.8624C0.547283 24.0455 0.844141 24.0456 1.02723 23.8625L4.20254 20.6876C4.38564 20.5046 4.38564 20.2078 4.20259 20.0247Z" fill="white"/>
<path d="M3.97551 16.0472C3.79251 15.8642 3.49565 15.8642 3.3126 16.0472L0.137767 19.2225C-0.0452792 19.4056 -0.0452792 19.7024 0.137814 19.8854C0.320861 20.0685 0.617673 20.0685 0.800719 19.8854L3.97556 16.7101C4.1586 16.527 4.1586 16.2302 3.97551 16.0472Z" fill="white"/>
<path d="M14.5822 9.41805C14.3991 9.235 14.1024 9.235 13.9192 9.41805L13.2564 10.0809C13.0734 10.2639 13.0734 10.5607 13.2564 10.7438C13.4395 10.9269 13.7363 10.9269 13.9194 10.7438L14.5822 10.081C14.7652 9.89795 14.7652 9.60114 14.5822 9.41805Z" fill="white"/>
</g>
<defs>
<clipPath id="clip0">
<rect width="24" height="24" fill="white"/>
</clipPath>
</defs>
</svg>
