
<svg version="1.0" xmlns="http://www.w3.org/2000/svg"
 width="128.000000pt" height="107.000000pt" viewBox="0 0 128.000000 107.000000"
 preserveAspectRatio="xMidYMid meet">
<metadata>
Created by potrace 1.16, written by Peter Selinger 2001-2019
</metadata>
<g transform="translate(0.000000,107.000000) scale(0.100000,-0.100000)"
fill="#000000" stroke="none">
<path d="M62 1016 c-12 -20 -28 -36 -37 -36 -13 0 -15 -23 -15 -165 l0 -165
70 0 70 0 -2 198 -3 197 -31 3 c-27 3 -34 -2 -52 -32z"/>
<path d="M1135 1037 c-3 -7 -4 -69 -3 -138 l3 -124 65 0 65 0 0 135 0 135 -63
3 c-45 2 -64 -1 -67 -11z"/>
<path d="M195 641 c-39 -18 -76 -45 -107 -80 -163 -181 -91 -452 142 -540 82
-31 139 -28 224 13 84 41 128 83 167 163 l28 58 1 -112 0 -113 310 0 310 0 0
305 0 305 -295 2 c-162 0 -301 1 -307 2 -10 1 -14 -44 -16 -189 l-2 -190 -75
3 -74 4 -25 -41 c-33 -52 -77 -74 -146 -74 -114 0 -184 71 -181 186 2 116 68
178 188 178 57 0 96 -16 132 -55 22 -23 32 -26 98 -26 40 0 73 2 73 5 0 3 -9
22 -19 43 -32 63 -86 116 -147 147 -49 25 -72 30 -139 32 -68 1 -89 -3 -140
-26z m945 -301 l0 -180 -180 0 -180 0 0 180 0 180 180 0 180 0 0 -180z"/>
</g>
</svg>
