<svg width="1070" height="881" viewBox="0 0 1070 881" fill="none" xmlns="http://www.w3.org/2000/svg">
<rect width="1070" height="881" fill="white"/>
<path d="M553.547 638.49C540.883 693.027 513.513 740.914 468.21 773.812C422.907 806.711 367.256 822.161 311.477 817.326C255.698 812.492 203.536 787.696 164.569 747.494C125.602 707.291 102.447 654.38 99.355 598.478C96.2634 542.575 113.443 487.434 147.739 443.179C182.035 398.925 231.145 368.529 286.051 357.573C340.957 346.617 397.972 355.837 446.626 383.539C495.281 411.241 534.947 462.356 553.547 515.164H447.839C433.744 494.021 424.408 483.554 398.508 467.595C370.489 451.642 336.971 447.992 305.352 454.301C273.734 460.61 245.453 478.114 225.702 503.599C205.952 529.084 196.059 560.838 197.839 593.031C199.62 625.224 212.954 655.694 235.394 678.845C257.834 701.997 287.873 716.276 319.995 719.06C352.116 721.844 384.164 712.947 410.253 694.001C433.744 673.726 433.744 670.202 447.839 638.49H553.547Z" fill="#040404"/>
<rect x="607.118" y="413.695" width="343.882" height="343.882" stroke="black" stroke-width="86"/>
<rect x="902.386" y="92.3285" width="91.6142" height="183.228" fill="black"/>
<path d="M109.571 136.374C133.047 129.713 142.08 118.913 151.855 88.8049H201.185V367.171H109.571V136.374Z" fill="black"/>
</svg>
